{
    "asset": {
        "version": "1.0",
        "generator": "Open Asset Import Library (assimp v4.1.0)"
    },
    "accessors": {
        "mesh_accessor": {
            "bufferView": "mesh_view",
            "byteOffset": 0,
            "byteStride": 0,
            "componentType": 5126,
            "count": 3564,
            "type": "VEC3",
            "max": [
                25.0,
                11.5,
                65.0
            ],
            "min": [
                2.5,
                -8.5,
                6.0
            ]
        },
        "mesh_accessor_0": {
            "bufferView": "mesh_view_0",
            "byteOffset": 0,
            "byteStride": 0,
            "componentType": 5126,
            "count": 3564,
            "type": "VEC3",
            "max": [
                1.0,
                1.0,
                1.0
            ],
            "min": [
                -1.0,
                -1.0,
                -1.0
            ]
        },
        "mesh_accessor_1": {
            "bufferView": "mesh_view_1",
            "byteOffset": 0,
            "byteStride": 0,
            "componentType": 5123,
            "count": 6294,
            "type": "SCALAR",
            "max": [
                3563.0
            ],
            "min": [
                0.0
            ]
        }
    },
    "buffers": {
        "../../download/4tpq2fxe31z4/4tpq2fxe31z4": {
            "byteLength": 98124,
            "type": "arraybuffer",
            "uri": "../../download/4tpq2fxe31z4/4tpq2fxe31z4.bin"
        }
    },
    "bufferViews": {
        "mesh_view": {
            "buffer": "../../download/4tpq2fxe31z4/4tpq2fxe31z4",
            "byteOffset": 0,
            "byteLength": 42768,
            "target": 34962
        },
        "mesh_view_0": {
            "buffer": "../../download/4tpq2fxe31z4/4tpq2fxe31z4",
            "byteOffset": 42768,
            "byteLength": 42768,
            "target": 34962
        },
        "mesh_view_1": {
            "buffer": "../../download/4tpq2fxe31z4/4tpq2fxe31z4",
            "byteOffset": 85536,
            "byteLength": 12588,
            "target": 34963
        }
    },
    "materials": {
        "DefaultMaterial": {
            "values": {
                "ambient": [
                    1.0,
                    1.0,
                    1.0,
                    1.0
                ],
                "diffuse": [
                    1.0,
                    1.0,
                    1.0,
                    1.0
                ],
                "specular": [
                    1.0,
                    1.0,
                    1.0,
                    1.0
                ],
                "emission": [
                    0.0,
                    0.0,
                    0.0,
                    1.0
                ],
                "shininess": 0.0
            }
        }
    },
    "meshes": {
        "mesh": {
            "name": "",
            "primitives": [
                {
                    "mode": 4,
                    "material": "DefaultMaterial",
                    "indices": "mesh_accessor_1",
                    "attributes": {
                        "POSITION": "mesh_accessor",
                        "NORMAL": "mesh_accessor_0"
                    }
                }
            ]
        }
    },
    "nodes": {
        "<STL_BINARY>": {
            "meshes": [
                "mesh"
            ]
        }
    },
    "scenes": {
        "defaultScene": {
            "nodes": [
                "<STL_BINARY>"
            ]
        }
    },
    "scene": "defaultScene"
}